<svg version="1.1" xmlns="http://www.w3.org/2000/svg" xmlns:xlink="http://www.w3.org/1999/xlink" width="498.341796875" height="527"><defs/><g><g transform="translate(-22,-70) scale(1,1)"><rect fill="#C0C0C0" stroke="none" x="47" y="247" width="119" height="103" opacity="0.2"/></g><g transform="translate(-22,-70) scale(1,1)"><rect fill="#ffffff" stroke="none" x="40" y="240" width="119" height="103"/></g><g transform="translate(-22,-70) scale(1,1)"><path fill="none" stroke="#000000" d="M 40 240 L 159 240 L 159 343 L 40 343 L 40 240 Z Z" stroke-miterlimit="10"/></g><g transform="translate(-22,-70) scale(1,1)"><path fill="none" stroke="#000000" d="M 40 265 L 159 265" stroke-miterlimit="10"/></g><g transform="translate(-22,-70) scale(1,1)"><path fill="none" stroke="#000000" d="M 40 303 L 159 303" stroke-miterlimit="10"/></g><g transform="translate(-22,-70) scale(1,1)"><g><path fill="none" stroke="none"/><text fill="#000000" stroke="none" font-family="Arial" font-size="13px" font-style="normal" font-weight="bold" text-decoration="none" x="77.464111328125" y="258">Square</text></g></g><g transform="translate(-22,-70) scale(1,1)"><g><path fill="none" stroke="none"/><text fill="#000000" stroke="none" font-family="Arial" font-size="13px" font-style="normal" font-weight="normal" text-decoration="none" x="45" y="281">-Positioin</text></g></g><g transform="translate(-22,-70) scale(1,1)"><g><path fill="none" stroke="none"/><text fill="#000000" stroke="none" font-family="Arial" font-size="13px" font-style="normal" font-weight="normal" text-decoration="none" x="45" y="296">+Owner: Player</text></g></g><g transform="translate(-22,-70) scale(1,1)"><g><path fill="none" stroke="none"/><text fill="#000000" stroke="none" font-family="Arial" font-size="13px" font-style="normal" font-weight="normal" text-decoration="none" x="45" y="319">-Empty()</text></g></g><g transform="translate(-22,-70) scale(1,1)"><rect fill="#C0C0C0" stroke="none" x="287" y="87" width="143" height="87" opacity="0.2"/></g><g transform="translate(-22,-70) scale(1,1)"><rect fill="#ffffff" stroke="none" x="280" y="80" width="143" height="87"/></g><g transform="translate(-22,-70) scale(1,1)"><path fill="none" stroke="#000000" d="M 280 80 L 423 80 L 423 167 L 280 167 L 280 80 Z Z" stroke-miterlimit="10"/></g><g transform="translate(-22,-70) scale(1,1)"><path fill="none" stroke="#000000" d="M 280 105 L 423 105" stroke-miterlimit="10"/></g><g transform="translate(-22,-70) scale(1,1)"><path fill="none" stroke="#000000" d="M 280 128 L 423 128" stroke-miterlimit="10"/></g><g transform="translate(-22,-70) scale(1,1)"><g><path fill="none" stroke="none"/><text fill="#000000" stroke="none" font-family="Arial" font-size="13px" font-style="normal" font-weight="bold" text-decoration="none" x="332.720458984375" y="98">Board</text></g></g><g transform="translate(-22,-70) scale(1,1)"><g><path fill="none" stroke="none"/><text fill="#000000" stroke="none" font-family="Arial" font-size="13px" font-style="normal" font-weight="normal" text-decoration="none" x="285" y="121">-Ocean: SquareList</text></g></g><g transform="translate(-22,-70) scale(1,1)"><rect fill="#C0C0C0" stroke="none" x="39" y="87" width="175" height="111" opacity="0.2"/></g><g transform="translate(-22,-70) scale(1,1)"><rect fill="#ffffff" stroke="none" x="32" y="80" width="175" height="111"/></g><g transform="translate(-22,-70) scale(1,1)"><path fill="none" stroke="#000000" d="M 32 80 L 207 80 L 207 191 L 32 191 L 32 80 Z Z" stroke-miterlimit="10"/></g><g transform="translate(-22,-70) scale(1,1)"><path fill="none" stroke="#000000" d="M 32 105 L 207 105" stroke-miterlimit="10"/></g><g transform="translate(-22,-70) scale(1,1)"><path fill="none" stroke="#000000" d="M 32 143 L 207 143" stroke-miterlimit="10"/></g><g transform="translate(-22,-70) scale(1,1)"><g><path fill="none" stroke="none"/><text fill="#000000" stroke="none" font-family="Arial" font-size="13px" font-style="normal" font-weight="bold" text-decoration="none" x="99.984130859375" y="98">Player</text></g></g><g transform="translate(-22,-70) scale(1,1)"><g><path fill="none" stroke="none"/><text fill="#000000" stroke="none" font-family="Arial" font-size="13px" font-style="normal" font-weight="normal" text-decoration="none" x="37" y="121">«property»-Human: bool</text></g></g><g transform="translate(-22,-70) scale(1,1)"><g><path fill="none" stroke="none"/><text fill="#000000" stroke="none" font-family="Arial" font-size="13px" font-style="normal" font-weight="normal" text-decoration="none" x="37" y="136">«property»+Name: string</text></g></g><g transform="translate(-22,-70) scale(1,1)"><g><path fill="none" stroke="none"/><text fill="#000000" stroke="none" font-family="Arial" font-size="13px" font-style="normal" font-weight="normal" text-decoration="none" x="37" y="159">+Play()</text></g></g><g transform="translate(-22,-70) scale(1,1)"><rect fill="#C0C0C0" stroke="none" x="63" y="455" width="79" height="39" opacity="0.2"/></g><g transform="translate(-22,-70) scale(1,1)"><rect fill="#ffffff" stroke="none" x="56" y="448" width="79" height="39"/></g><g transform="translate(-22,-70) scale(1,1)"><path fill="none" stroke="#000000" d="M 56 448 L 135 448 L 135 487 L 56 487 L 56 448 Z Z" stroke-miterlimit="10"/></g><g transform="translate(-22,-70) scale(1,1)"><g><path fill="none" stroke="none"/><text fill="#000000" stroke="none" font-family="Arial" font-size="13px" font-style="normal" font-weight="normal" text-decoration="none" x="61.52734375" y="464">«dataType»</text></g></g><g transform="translate(-22,-70) scale(1,1)"><g><path fill="none" stroke="none"/><text fill="#000000" stroke="none" font-family="Arial" font-size="13px" font-style="normal" font-weight="bold" text-decoration="none" x="73.464111328125" y="479">Square</text></g></g><g transform="translate(-22,-70) scale(1,1)"><rect fill="#C0C0C0" stroke="none" x="63" y="511" width="99.923828125" height="83" opacity="0.2"/></g><g transform="translate(-22,-70) scale(1,1)"><rect fill="#ffffff" stroke="none" x="56" y="504" width="99.923828125" height="83"/></g><g transform="translate(-22,-70) scale(1,1)"><path fill="none" stroke="#000000" d="M 56 504 L 155.923828125 504 L 155.923828125 587 L 56 587 L 56 504 Z Z" stroke-miterlimit="10"/></g><g transform="translate(-22,-70) scale(1,1)"><path fill="none" stroke="#000000" d="M 56 542 L 155.923828125 542" stroke-miterlimit="10"/></g><g transform="translate(-22,-70) scale(1,1)"><path fill="none" stroke="#000000" d="M 56 565 L 155.923828125 565" stroke-miterlimit="10"/></g><g transform="translate(-22,-70) scale(1,1)"><g><path fill="none" stroke="none"/><text fill="#000000" stroke="none" font-family="Arial" font-size="13px" font-style="normal" font-weight="normal" text-decoration="none" x="71.9892578125" y="520">«dataType»</text></g></g><g transform="translate(-22,-70) scale(1,1)"><g><path fill="none" stroke="none"/><text fill="#000000" stroke="none" font-family="Arial" font-size="13px" font-style="normal" font-weight="bold" text-decoration="none" x="72.3701171875" y="535">SquareList</text></g></g><g transform="translate(-22,-70) scale(1,1)"><g><path fill="none" stroke="none"/><text fill="#000000" stroke="none" font-family="Arial" font-size="13px" font-style="normal" font-weight="normal" text-decoration="none" x="61" y="558">+Water: Square</text></g></g><g transform="translate(-22,-70) scale(1,1)"><g><path fill="none" stroke="none"/><text fill="#000000" stroke="none" font-family="Arial" font-size="13px" font-style="normal" font-weight="normal" text-decoration="none" x="61" y="581">+Add()</text></g></g><g transform="translate(-22,-70) scale(1,1)"><rect fill="#C0C0C0" stroke="none" x="191" y="415" width="100.5205078125" height="47" opacity="0.2"/></g><g transform="translate(-22,-70) scale(1,1)"><rect fill="#ffffff" stroke="none" x="184" y="408" width="100.5205078125" height="47"/></g><g transform="translate(-22,-70) scale(1,1)"><path fill="none" stroke="#000000" d="M 184 408 L 284.5205078125 408 L 284.5205078125 455 L 184 455 L 184 408 Z Z" stroke-miterlimit="10"/></g><g transform="translate(-22,-70) scale(1,1)"><g><path fill="none" stroke="none"/><text fill="#000000" stroke="none" font-family="Arial" font-size="13px" font-style="normal" font-weight="normal" text-decoration="none" x="188.7412109375" y="424">«primitiveType»</text></g></g><g transform="translate(-22,-70) scale(1,1)"><g><path fill="none" stroke="none"/><text fill="#000000" stroke="none" font-family="Arial" font-size="13px" font-style="normal" font-weight="bold" text-decoration="none" x="206.0830078125" y="439">geenIdee</text></g></g><g transform="translate(-22,-70) scale(1,1)"><rect fill="#C0C0C0" stroke="none" x="319" y="479" width="120" height="90" opacity="0.2"/></g><g transform="translate(-22,-70) scale(1,1)"><rect fill="#ffffff" stroke="none" x="312" y="472" width="120" height="90"/></g><g transform="translate(-22,-70) scale(1,1)"><path fill="none" stroke="#000000" d="M 312 472 L 432 472 L 432 562 L 312 562 L 312 472 Z Z" stroke-miterlimit="10"/></g><g transform="translate(-22,-70) scale(1,1)"><path fill="none" stroke="#000000" d="M 312 510 L 432 510" stroke-miterlimit="10"/></g><g transform="translate(-22,-70) scale(1,1)"><g><path fill="none" stroke="none"/><text fill="#000000" stroke="none" font-family="Arial" font-size="13px" font-style="normal" font-weight="normal" text-decoration="none" x="328.635986328125" y="488">«enumeration»</text></g></g><g transform="translate(-22,-70) scale(1,1)"><g><path fill="none" stroke="none"/><text fill="#000000" stroke="none" font-family="Arial" font-size="13px" font-style="normal" font-weight="bold" text-decoration="none" x="345.63818359375" y="503">Shippart</text></g></g><g transform="translate(-22,-70) scale(1,1)"><g><path fill="none" stroke="none"/><text fill="#000000" stroke="none" font-family="Arial" font-size="13px" font-style="normal" font-weight="normal" text-decoration="none" x="317" y="526">Stearn</text></g></g><g transform="translate(-22,-70) scale(1,1)"><g><path fill="none" stroke="none"/><text fill="#000000" stroke="none" font-family="Arial" font-size="13px" font-style="normal" font-weight="normal" text-decoration="none" x="317" y="541">Midship</text></g></g><g transform="translate(-22,-70) scale(1,1)"><g><path fill="none" stroke="none"/><text fill="#000000" stroke="none" font-family="Arial" font-size="13px" font-style="normal" font-weight="normal" text-decoration="none" x="317" y="556">Bow</text></g></g><g transform="translate(-22,-70) scale(1,1)"><rect fill="#C0C0C0" stroke="none" x="191" y="511" width="89.18994140625" height="62" opacity="0.2"/></g><g transform="translate(-22,-70) scale(1,1)"><rect fill="#ffffff" stroke="none" x="184" y="504" width="89.18994140625" height="62"/></g><g transform="translate(-22,-70) scale(1,1)"><path fill="none" stroke="#000000" d="M 184 504 L 273.18994140625 504 L 273.18994140625 566 L 184 566 L 184 504 Z Z" stroke-miterlimit="10"/></g><g transform="translate(-22,-70) scale(1,1)"><path fill="none" stroke="#000000" d="M 184 557 L 273.18994140625 557" stroke-miterlimit="10"/></g><g transform="translate(-22,-70) scale(1,1)"><g><path fill="none" stroke="none"/><text fill="#000000" stroke="none" font-family="Arial" font-size="13px" font-style="normal" font-weight="normal" text-decoration="none" x="191.734130859375" y="520">«valueType»</text></g></g><g transform="translate(-22,-70) scale(1,1)"><g><path fill="none" stroke="none"/><text fill="#000000" stroke="none" font-family="Arial" font-size="13px" font-style="normal" font-weight="bold" text-decoration="none" x="211.61181640625" y="535">Value</text></g></g><g transform="translate(-22,-70) scale(1,1)"><g><path fill="none" stroke="none"/><text fill="#000000" stroke="none" font-family="Arial" font-size="13px" font-style="normal" font-weight="normal" text-decoration="none" x="188.5" y="550">(from Square)</text></g></g><g transform="translate(-22,-70) scale(1,1)"><rect fill="#C0C0C0" stroke="none" x="478" y="225" width="39.341796875" height="44" opacity="0.2"/></g><g transform="translate(-22,-70) scale(1,1)"><rect fill="#ffffff" stroke="none" x="471" y="218" width="39.341796875" height="44"/></g><g transform="translate(-22,-70) scale(1,1)"><path fill="none" stroke="#000000" d="M 471 218 L 510.341796875 218 L 510.341796875 262 L 471 262 L 471 218 Z Z" stroke-miterlimit="10"/></g><g transform="translate(-22,-70) scale(1,1)"><path fill="none" stroke="#000000" d="M 471 243 L 510.341796875 243" stroke-miterlimit="10"/></g><g transform="translate(-22,-70) scale(1,1)"><path fill="none" stroke="#000000" d="M 471 253 L 510.341796875 253" stroke-miterlimit="10"/></g><g transform="translate(-22,-70) scale(1,1)"><g><path fill="none" stroke="none"/><text fill="#000000" stroke="none" font-family="Arial" font-size="13px" font-style="normal" font-weight="bold" text-decoration="none" x="475.5" y="236">Fleet</text></g></g><g transform="translate(-22,-70) scale(1,1)"><rect fill="#C0C0C0" stroke="none" x="288" y="270" width="151" height="97" opacity="0.2"/></g><g transform="translate(-22,-70) scale(1,1)"><rect fill="#ffffff" stroke="none" x="281" y="263" width="151" height="97"/></g><g transform="translate(-22,-70) scale(1,1)"><path fill="none" stroke="#000000" d="M 281 263 L 432 263 L 432 360 L 281 360 L 281 263 Z Z" stroke-miterlimit="10"/></g><g transform="translate(-22,-70) scale(1,1)"><path fill="none" stroke="#000000" d="M 281 288 L 432 288" stroke-miterlimit="10"/></g><g transform="translate(-22,-70) scale(1,1)"><path fill="none" stroke="#000000" d="M 281 326 L 432 326" stroke-miterlimit="10"/></g><g transform="translate(-22,-70) scale(1,1)"><g><path fill="none" stroke="none"/><text fill="#000000" stroke="none" font-family="Arial" font-size="13px" font-style="normal" font-weight="bold" text-decoration="none" x="342.417724609375" y="281">Ship</text></g></g><g transform="translate(-22,-70) scale(1,1)"><g><path fill="none" stroke="none"/><text fill="#000000" stroke="none" font-family="Arial" font-size="13px" font-style="normal" font-weight="normal" text-decoration="none" x="286" y="304">+Name: String</text></g></g><g transform="translate(-22,-70) scale(1,1)"><g><path fill="none" stroke="none"/><text fill="#000000" stroke="none" font-family="Arial" font-size="13px" font-style="normal" font-weight="normal" text-decoration="none" x="286" y="319">+Parts: Shippart</text></g></g></g></svg>